<svg fill="#000" xmlns="http://www.w3.org/2000/svg" xmlns:xlink="http://www.w3.org/1999/xlink" version="1.1" x="0px" y="0px" viewBox="0 0 100 100" enable-background="new 0 0 100 100" xml:space="preserve"><path d="M81.457,28.118c1.957,0,3.543-1.586,3.543-3.543s-1.586-3.543-3.543-3.543c-1.871,0-3.387,1.454-3.518,3.292l-13.165,2.265  c-0.673-1.328-1.922-2.308-3.431-2.587l-0.19-5.869c1.155-0.479,1.97-1.616,1.97-2.945c0-1.762-1.428-3.188-3.188-3.188  s-3.188,1.427-3.188,3.188c0,1.491,1.028,2.733,2.411,3.082l0.188,5.781c-1.148,0.269-2.134,0.943-2.808,1.867l-10.429-6.684  c0.001-0.04,0.012-0.076,0.012-0.116c0-1.957-1.586-3.543-3.543-3.543s-3.543,1.586-3.543,3.543s1.586,3.543,3.543,3.543  c1.184,0,2.224-0.585,2.868-1.477l10.259,6.575c-0.069,0.327-0.109,0.666-0.109,1.013c0,0.812,0.218,1.565,0.57,2.238L38.239,49.02  c-0.872-0.831-2.045-1.348-3.345-1.348c-0.986,0-1.9,0.298-2.666,0.802L23.88,40.18c0.622-0.696,1.011-1.605,1.011-2.612  c0-2.174-1.763-3.936-3.937-3.936c-2.174,0-3.937,1.762-3.937,3.936s1.763,3.938,3.937,3.938c0.426,0,0.828-0.085,1.211-0.21  l8.655,8.599c-0.494,0.761-0.787,1.664-0.787,2.638c0,0.241,0.037,0.473,0.071,0.705l-11.457,4.234  c-0.562-0.908-1.559-1.52-2.706-1.52c-1.761,0-3.189,1.428-3.189,3.188s1.428,3.188,3.189,3.188c1.66,0,3.008-1.273,3.159-2.894  l11.742-4.32C31.534,56.209,33,57.014,34,57.287v7.173c-1,0.421-2.242,1.603-2.242,3.012c0,1.762,1.401,3.189,3.163,3.189  c1.761,0,3.229-1.428,3.229-3.189c0-1.409-1.149-2.591-2.149-3.012v-7.173c1-0.333,2.843-1.448,3.444-2.925l16.212,3.332  c-0.012,0.12-0.049,0.236-0.049,0.36c0,1.957,1.579,3.543,3.536,3.543c0.283,0,0.552-0.042,0.815-0.104l3.344,6.611  c-0.923,0.64-1.53,1.703-1.53,2.911c0,0.52,0.117,1.01,0.318,1.455l-5.072,5.071c-0.431-0.216-0.91-0.35-1.425-0.35  c-1.761,0-3.189,1.427-3.189,3.188c0,1.761,1.429,3.188,3.189,3.188c1.762,0,3.189-1.428,3.189-3.188  c0-0.515-0.134-0.994-0.351-1.425l4.967-4.967c0.554,0.357,1.208,0.569,1.915,0.569c0.979,0,1.864-0.396,2.505-1.037l9.302,6.231  c-0.282,0.476-0.455,1.024-0.455,1.617c0,1.762,1.428,3.189,3.189,3.189c1.761,0,3.189-1.428,3.189-3.189  c0-1.761-1.429-3.188-3.189-3.188c-0.407,0-0.794,0.083-1.151,0.223l-9.927-6.65c0.051-0.239,0.08-0.485,0.08-0.739  c0-1.957-1.586-3.543-3.543-3.543c-0.03,0-0.058,0.008-0.087,0.009l-3.533-6.984c0.607-0.636,0.985-1.493,0.985-2.442  c0-1.957-1.586-3.543-3.543-3.543c-1.102,0-2.073,0.513-2.723,1.302L39.74,52.393c-0.017-0.598-0.135-1.169-0.35-1.694  l18.053-18.138c0.83,0.66,1.867,1.071,3.011,1.071c1.021,0,1.966-0.318,2.749-0.856l9.22,9.118  c-0.211,0.426-0.341,0.899-0.341,1.407c0,1.761,1.428,3.188,3.188,3.188s3.188-1.428,3.188-3.188s-1.428-3.188-3.188-3.188  c-0.521,0-1.007,0.137-1.441,0.359l-9.254-9.15c0.461-0.743,0.739-1.611,0.739-2.549c0-0.083-0.021-0.161-0.024-0.243l13.079-2.25  C78.973,27.371,80.121,28.118,81.457,28.118z"/></svg>
